
<svg width="562" height="458" viewBox="0 0 562 458" fill="none" xmlns="http://www.w3.org/2000/svg">
<path fill-rule="evenodd" clip-rule="evenodd" d="M402 301.981C402 303.628 403.335 304.963 404.981 304.963C406.628 304.963 407.963 303.628 407.963 301.981C407.963 300.335 406.628 299 404.981 299C403.335 299 402 300.335 402 301.981ZM422.869 301.981C422.869 303.628 424.204 304.963 425.85 304.963C427.497 304.963 428.831 303.628 428.831 301.981C428.831 300.335 427.497 299 425.85 299C424.204 299 422.869 300.335 422.869 301.981ZM443.737 301.981C443.737 303.628 445.072 304.963 446.719 304.963C448.365 304.963 449.7 303.628 449.7 301.981C449.7 300.335 448.365 299 446.719 299C445.072 299 443.737 300.335 443.737 301.981ZM506.344 301.981C506.344 303.628 507.678 304.963 509.325 304.963C510.971 304.963 512.306 303.628 512.306 301.981C512.306 300.335 510.971 299 509.325 299C507.678 299 506.344 300.335 506.344 301.981ZM488.456 304.963C486.81 304.963 485.475 303.628 485.475 301.981C485.475 300.335 486.81 299 488.456 299C490.103 299 491.437 300.335 491.437 301.981C491.437 303.628 490.103 304.963 488.456 304.963ZM467.588 304.963C465.941 304.963 464.606 303.628 464.606 301.981C464.606 300.335 465.941 299 467.588 299C469.234 299 470.569 300.335 470.569 301.981C470.569 303.628 469.234 304.963 467.588 304.963ZM509.325 392.412C507.678 392.412 506.344 391.078 506.344 389.431C506.344 387.785 507.678 386.45 509.325 386.45C510.971 386.45 512.306 387.785 512.306 389.431C512.306 391.078 510.971 392.412 509.325 392.412ZM443.737 389.431C443.737 391.078 445.072 392.412 446.719 392.412C448.365 392.412 449.7 391.078 449.7 389.431C449.7 387.785 448.365 386.45 446.719 386.45C445.072 386.45 443.737 387.785 443.737 389.431ZM488.456 392.412C486.81 392.412 485.475 391.078 485.475 389.431C485.475 387.785 486.81 386.45 488.456 386.45C490.103 386.45 491.437 387.785 491.437 389.431C491.437 391.078 490.103 392.412 488.456 392.412ZM422.869 389.431C422.869 391.078 424.204 392.412 425.85 392.412C427.497 392.412 428.831 391.078 428.831 389.431C428.831 387.785 427.497 386.45 425.85 386.45C424.204 386.45 422.869 387.785 422.869 389.431ZM467.588 392.412C465.941 392.412 464.606 391.078 464.606 389.431C464.606 387.785 465.941 386.45 467.588 386.45C469.234 386.45 470.569 387.785 470.569 389.431C470.569 391.078 469.234 392.412 467.588 392.412ZM402 389.431C402 391.078 403.335 392.412 404.981 392.412C406.628 392.412 407.963 391.078 407.963 389.431C407.963 387.785 406.628 386.45 404.981 386.45C403.335 386.45 402 387.785 402 389.431ZM509.325 326.825C507.678 326.825 506.344 325.49 506.344 323.844C506.344 322.197 507.678 320.862 509.325 320.862C510.971 320.862 512.306 322.197 512.306 323.844C512.306 325.49 510.971 326.825 509.325 326.825ZM443.737 323.844C443.737 325.49 445.072 326.825 446.719 326.825C448.365 326.825 449.7 325.49 449.7 323.844C449.7 322.197 448.365 320.862 446.719 320.862C445.072 320.862 443.737 322.197 443.737 323.844ZM488.456 326.825C486.81 326.825 485.475 325.49 485.475 323.844C485.475 322.197 486.81 320.862 488.456 320.862C490.103 320.862 491.437 322.197 491.437 323.844C491.437 325.49 490.103 326.825 488.456 326.825ZM422.869 323.844C422.869 325.49 424.204 326.825 425.85 326.825C427.497 326.825 428.831 325.49 428.831 323.844C428.831 322.197 427.497 320.862 425.85 320.862C424.204 320.862 422.869 322.197 422.869 323.844ZM467.588 326.825C465.941 326.825 464.606 325.49 464.606 323.844C464.606 322.197 465.941 320.862 467.588 320.862C469.234 320.862 470.569 322.197 470.569 323.844C470.569 325.49 469.234 326.825 467.588 326.825ZM402 323.844C402 325.49 403.335 326.825 404.981 326.825C406.628 326.825 407.963 325.49 407.963 323.844C407.963 322.197 406.628 320.862 404.981 320.862C403.335 320.862 402 322.197 402 323.844ZM509.325 414.275C507.678 414.275 506.344 412.94 506.344 411.294C506.344 409.647 507.678 408.313 509.325 408.313C510.971 408.313 512.306 409.647 512.306 411.294C512.306 412.94 510.971 414.275 509.325 414.275ZM443.737 411.294C443.737 412.94 445.072 414.275 446.719 414.275C448.365 414.275 449.7 412.94 449.7 411.294C449.7 409.647 448.365 408.313 446.719 408.313C445.072 408.313 443.737 409.647 443.737 411.294ZM488.456 414.275C486.81 414.275 485.475 412.94 485.475 411.294C485.475 409.647 486.81 408.313 488.456 408.313C490.103 408.313 491.437 409.647 491.437 411.294C491.437 412.94 490.103 414.275 488.456 414.275ZM422.869 411.294C422.869 412.94 424.204 414.275 425.85 414.275C427.497 414.275 428.831 412.94 428.831 411.294C428.831 409.647 427.497 408.313 425.85 408.313C424.204 408.313 422.869 409.647 422.869 411.294ZM467.588 414.275C465.941 414.275 464.606 412.94 464.606 411.294C464.606 409.647 465.941 408.313 467.588 408.313C469.234 408.313 470.569 409.647 470.569 411.294C470.569 412.94 469.234 414.275 467.588 414.275ZM402 411.294C402 412.94 403.335 414.275 404.981 414.275C406.628 414.275 407.963 412.94 407.963 411.294C407.963 409.647 406.628 408.313 404.981 408.313C403.335 408.313 402 409.647 402 411.294ZM509.325 348.688C507.678 348.688 506.344 347.353 506.344 345.706C506.344 344.06 507.678 342.725 509.325 342.725C510.971 342.725 512.306 344.06 512.306 345.706C512.306 347.353 510.971 348.688 509.325 348.688ZM443.737 345.706C443.737 347.353 445.072 348.688 446.719 348.688C448.365 348.688 449.7 347.353 449.7 345.706C449.7 344.06 448.365 342.725 446.719 342.725C445.072 342.725 443.737 344.06 443.737 345.706ZM488.456 348.688C486.81 348.688 485.475 347.353 485.475 345.706C485.475 344.06 486.81 342.725 488.456 342.725C490.103 342.725 491.437 344.06 491.437 345.706C491.437 347.353 490.103 348.688 488.456 348.688ZM422.869 345.706C422.869 347.353 424.204 348.688 425.85 348.688C427.497 348.688 428.831 347.353 428.831 345.706C428.831 344.06 427.497 342.725 425.85 342.725C424.204 342.725 422.869 344.06 422.869 345.706ZM467.588 348.688C465.941 348.688 464.606 347.353 464.606 345.706C464.606 344.06 465.941 342.725 467.588 342.725C469.234 342.725 470.569 344.06 470.569 345.706C470.569 347.353 469.234 348.688 467.588 348.688ZM402 345.706C402 347.353 403.335 348.688 404.981 348.688C406.628 348.688 407.963 347.353 407.963 345.706C407.963 344.06 406.628 342.725 404.981 342.725C403.335 342.725 402 344.06 402 345.706ZM509.325 436.138C507.678 436.138 506.344 434.803 506.344 433.156C506.344 431.51 507.678 430.175 509.325 430.175C510.971 430.175 512.306 431.51 512.306 433.156C512.306 434.803 510.971 436.138 509.325 436.138ZM443.737 433.156C443.737 434.803 445.072 436.138 446.719 436.138C448.365 436.138 449.7 434.803 449.7 433.156C449.7 431.51 448.365 430.175 446.719 430.175C445.072 430.175 443.737 431.51 443.737 433.156ZM488.456 436.138C486.81 436.138 485.475 434.803 485.475 433.156C485.475 431.51 486.81 430.175 488.456 430.175C490.103 430.175 491.437 431.51 491.437 433.156C491.437 434.803 490.103 436.138 488.456 436.138ZM422.869 433.156C422.869 434.803 424.204 436.138 425.85 436.138C427.497 436.138 428.831 434.803 428.831 433.156C428.831 431.51 427.497 430.175 425.85 430.175C424.204 430.175 422.869 431.51 422.869 433.156ZM467.588 436.138C465.941 436.138 464.606 434.803 464.606 433.156C464.606 431.51 465.941 430.175 467.588 430.175C469.234 430.175 470.569 431.51 470.569 433.156C470.569 434.803 469.234 436.138 467.588 436.138ZM402 433.156C402 434.803 403.335 436.138 404.981 436.138C406.628 436.138 407.963 434.803 407.963 433.156C407.963 431.51 406.628 430.175 404.981 430.175C403.335 430.175 402 431.51 402 433.156ZM509.325 370.55C507.678 370.55 506.344 369.215 506.344 367.569C506.344 365.922 507.678 364.588 509.325 364.588C510.971 364.588 512.306 365.922 512.306 367.569C512.306 369.215 510.971 370.55 509.325 370.55ZM443.737 367.569C443.737 369.215 445.072 370.55 446.719 370.55C448.365 370.55 449.7 369.215 449.7 367.569C449.7 365.922 448.365 364.588 446.719 364.588C445.072 364.588 443.737 365.922 443.737 367.569ZM488.456 370.55C486.81 370.55 485.475 369.215 485.475 367.569C485.475 365.922 486.81 364.588 488.456 364.588C490.103 364.588 491.437 365.922 491.437 367.569C491.437 369.215 490.103 370.55 488.456 370.55ZM422.869 367.569C422.869 369.215 424.204 370.55 425.85 370.55C427.497 370.55 428.831 369.215 428.831 367.569C428.831 365.922 427.497 364.588 425.85 364.588C424.204 364.588 422.869 365.922 422.869 367.569ZM467.588 370.55C465.941 370.55 464.606 369.215 464.606 367.569C464.606 365.922 465.941 364.588 467.588 364.588C469.234 364.588 470.569 365.922 470.569 367.569C470.569 369.215 469.234 370.55 467.588 370.55ZM402 367.569C402 369.215 403.335 370.55 404.981 370.55C406.628 370.55 407.963 369.215 407.963 367.569C407.963 365.922 406.628 364.588 404.981 364.588C403.335 364.588 402 365.922 402 367.569ZM509.325 458C507.678 458 506.344 456.665 506.344 455.019C506.344 453.372 507.678 452.038 509.325 452.038C510.971 452.038 512.306 453.372 512.306 455.019C512.306 456.665 510.971 458 509.325 458ZM443.737 455.019C443.737 456.665 445.072 458 446.719 458C448.365 458 449.7 456.665 449.7 455.019C449.7 453.372 448.365 452.038 446.719 452.038C445.072 452.038 443.737 453.372 443.737 455.019ZM488.456 458C486.81 458 485.475 456.665 485.475 455.019C485.475 453.372 486.81 452.038 488.456 452.038C490.103 452.038 491.437 453.372 491.437 455.019C491.437 456.665 490.103 458 488.456 458ZM422.869 455.019C422.869 456.665 424.204 458 425.85 458C427.497 458 428.831 456.665 428.831 455.019C428.831 453.372 427.497 452.038 425.85 452.038C424.204 452.038 422.869 453.372 422.869 455.019ZM467.588 458C465.941 458 464.606 456.665 464.606 455.019C464.606 453.372 465.941 452.038 467.588 452.038C469.234 452.038 470.569 453.372 470.569 455.019C470.569 456.665 469.234 458 467.588 458ZM402 455.019C402 456.665 403.335 458 404.981 458C406.628 458 407.963 456.665 407.963 455.019C407.963 453.372 406.628 452.038 404.981 452.038C403.335 452.038 402 453.372 402 455.019Z" fill="url(#paint0_linear)"/>
<path fill-rule="evenodd" clip-rule="evenodd" d="M196.019 204C194.372 204 193.037 205.335 193.037 206.981C193.037 208.628 194.372 209.963 196.019 209.963C197.665 209.963 199 208.628 199 206.981C199 205.335 197.665 204 196.019 204ZM196.019 224.869C194.372 224.869 193.037 226.204 193.037 227.85C193.037 229.497 194.372 230.831 196.019 230.831C197.665 230.831 199 229.497 199 227.85C199 226.204 197.665 224.869 196.019 224.869ZM196.019 245.737C194.372 245.737 193.037 247.072 193.037 248.719C193.037 250.365 194.372 251.7 196.019 251.7C197.665 251.7 199 250.365 199 248.719C199 247.072 197.665 245.737 196.019 245.737ZM196.019 308.344C194.372 308.344 193.037 309.678 193.037 311.325C193.037 312.971 194.372 314.306 196.019 314.306C197.665 314.306 199 312.971 199 311.325C199 309.678 197.665 308.344 196.019 308.344ZM193.037 290.456C193.037 288.81 194.372 287.475 196.019 287.475C197.665 287.475 199 288.81 199 290.456C199 292.103 197.665 293.437 196.019 293.437C194.372 293.437 193.037 292.103 193.037 290.456ZM193.037 269.588C193.037 267.941 194.372 266.606 196.019 266.606C197.665 266.606 199 267.941 199 269.588C199 271.234 197.665 272.569 196.019 272.569C194.372 272.569 193.037 271.234 193.037 269.588ZM105.588 311.325C105.588 309.678 106.922 308.344 108.569 308.344C110.215 308.344 111.55 309.678 111.55 311.325C111.55 312.971 110.215 314.306 108.569 314.306C106.922 314.306 105.588 312.971 105.588 311.325ZM108.569 245.737C106.922 245.737 105.588 247.072 105.588 248.719C105.588 250.365 106.922 251.7 108.569 251.7C110.215 251.7 111.55 250.365 111.55 248.719C111.55 247.072 110.215 245.737 108.569 245.737ZM105.588 290.456C105.588 288.81 106.922 287.475 108.569 287.475C110.215 287.475 111.55 288.81 111.55 290.456C111.55 292.103 110.215 293.437 108.569 293.437C106.922 293.437 105.588 292.103 105.588 290.456ZM108.569 224.869C106.922 224.869 105.588 226.204 105.588 227.85C105.588 229.497 106.922 230.831 108.569 230.831C110.215 230.831 111.55 229.497 111.55 227.85C111.55 226.204 110.215 224.869 108.569 224.869ZM105.588 269.588C105.588 267.941 106.922 266.606 108.569 266.606C110.215 266.606 111.55 267.941 111.55 269.588C111.55 271.234 110.215 272.569 108.569 272.569C106.922 272.569 105.588 271.234 105.588 269.588ZM108.569 204C106.922 204 105.588 205.335 105.588 206.981C105.588 208.628 106.922 209.963 108.569 209.963C110.215 209.963 111.55 208.628 111.55 206.981C111.55 205.335 110.215 204 108.569 204ZM171.175 311.325C171.175 309.678 172.51 308.344 174.156 308.344C175.803 308.344 177.138 309.678 177.138 311.325C177.138 312.971 175.803 314.306 174.156 314.306C172.51 314.306 171.175 312.971 171.175 311.325ZM174.156 245.737C172.51 245.737 171.175 247.072 171.175 248.719C171.175 250.365 172.51 251.7 174.156 251.7C175.803 251.7 177.138 250.365 177.138 248.719C177.138 247.072 175.803 245.737 174.156 245.737ZM171.175 290.456C171.175 288.81 172.51 287.475 174.156 287.475C175.803 287.475 177.138 288.81 177.138 290.456C177.138 292.103 175.803 293.437 174.156 293.437C172.51 293.437 171.175 292.103 171.175 290.456ZM174.156 224.869C172.51 224.869 171.175 226.204 171.175 227.85C171.175 229.497 172.51 230.831 174.156 230.831C175.803 230.831 177.138 229.497 177.138 227.85C177.138 226.204 175.803 224.869 174.156 224.869ZM171.175 269.588C171.175 267.941 172.51 266.606 174.156 266.606C175.803 266.606 177.138 267.941 177.138 269.588C177.138 271.234 175.803 272.569 174.156 272.569C172.51 272.569 171.175 271.234 171.175 269.588ZM174.156 204C172.51 204 171.175 205.335 171.175 206.981C171.175 208.628 172.51 209.963 174.156 209.963C175.803 209.963 177.138 208.628 177.138 206.981C177.138 205.335 175.803 204 174.156 204ZM83.7248 311.325C83.7248 309.678 85.0595 308.344 86.706 308.344C88.3525 308.344 89.6873 309.678 89.6873 311.325C89.6873 312.971 88.3525 314.306 86.706 314.306C85.0595 314.306 83.7248 312.971 83.7248 311.325ZM86.706 245.737C85.0595 245.737 83.7248 247.072 83.7248 248.719C83.7248 250.365 85.0595 251.7 86.706 251.7C88.3525 251.7 89.6873 250.365 89.6873 248.719C89.6873 247.072 88.3525 245.737 86.706 245.737ZM83.7248 290.456C83.7248 288.81 85.0595 287.475 86.706 287.475C88.3525 287.475 89.6873 288.81 89.6873 290.456C89.6873 292.103 88.3525 293.437 86.706 293.437C85.0595 293.437 83.7248 292.103 83.7248 290.456ZM86.706 224.869C85.0595 224.869 83.7248 226.204 83.7248 227.85C83.7248 229.497 85.0595 230.831 86.706 230.831C88.3525 230.831 89.6873 229.497 89.6873 227.85C89.6873 226.204 88.3525 224.869 86.706 224.869ZM83.7248 269.588C83.7248 267.941 85.0595 266.606 86.706 266.606C88.3525 266.606 89.6873 267.941 89.6873 269.588C89.6873 271.234 88.3525 272.569 86.706 272.569C85.0595 272.569 83.7248 271.234 83.7248 269.588ZM86.706 204C85.0595 204 83.7248 205.335 83.7248 206.981C83.7248 208.628 85.0595 209.963 86.706 209.963C88.3525 209.963 89.6873 208.628 89.6873 206.981C89.6873 205.335 88.3525 204 86.706 204ZM149.312 311.325C149.312 309.678 150.647 308.344 152.294 308.344C153.94 308.344 155.275 309.678 155.275 311.325C155.275 312.971 153.94 314.306 152.294 314.306C150.647 314.306 149.312 312.971 149.312 311.325ZM152.294 245.737C150.647 245.737 149.312 247.072 149.312 248.719C149.312 250.365 150.647 251.7 152.294 251.7C153.94 251.7 155.275 250.365 155.275 248.719C155.275 247.072 153.94 245.737 152.294 245.737ZM149.312 290.456C149.312 288.81 150.647 287.475 152.294 287.475C153.94 287.475 155.275 288.81 155.275 290.456C155.275 292.103 153.94 293.437 152.294 293.437C150.647 293.437 149.312 292.103 149.312 290.456ZM152.294 224.869C150.647 224.869 149.312 226.204 149.312 227.85C149.312 229.497 150.647 230.831 152.294 230.831C153.94 230.831 155.275 229.497 155.275 227.85C155.275 226.204 153.94 224.869 152.294 224.869ZM149.312 269.588C149.312 267.941 150.647 266.606 152.294 266.606C153.94 266.606 155.275 267.941 155.275 269.588C155.275 271.234 153.94 272.569 152.294 272.569C150.647 272.569 149.312 271.234 149.312 269.588ZM152.294 204C150.647 204 149.312 205.335 149.312 206.981C149.312 208.628 150.647 209.963 152.294 209.963C153.94 209.963 155.275 208.628 155.275 206.981C155.275 205.335 153.94 204 152.294 204ZM61.8624 311.325C61.8624 309.678 63.1971 308.344 64.8436 308.344C66.4901 308.344 67.8249 309.678 67.8249 311.325C67.8249 312.971 66.4901 314.306 64.8436 314.306C63.1971 314.306 61.8624 312.971 61.8624 311.325ZM64.8436 245.737C63.1971 245.737 61.8624 247.072 61.8624 248.719C61.8624 250.365 63.1971 251.7 64.8436 251.7C66.4901 251.7 67.8249 250.365 67.8249 248.719C67.8249 247.072 66.4901 245.737 64.8436 245.737ZM61.8624 290.456C61.8624 288.81 63.1971 287.475 64.8436 287.475C66.4901 287.475 67.8249 288.81 67.8249 290.456C67.8249 292.103 66.4901 293.437 64.8436 293.437C63.1971 293.437 61.8624 292.103 61.8624 290.456ZM64.8436 224.869C63.1971 224.869 61.8624 226.204 61.8624 227.85C61.8624 229.497 63.1971 230.831 64.8436 230.831C66.4901 230.831 67.8249 229.497 67.8249 227.85C67.8249 226.204 66.4901 224.869 64.8436 224.869ZM61.8624 269.588C61.8624 267.941 63.1971 266.606 64.8436 266.606C66.4901 266.606 67.8249 267.941 67.8249 269.588C67.8249 271.234 66.4901 272.569 64.8436 272.569C63.1971 272.569 61.8624 271.234 61.8624 269.588ZM64.8436 204C63.1971 204 61.8624 205.335 61.8624 206.981C61.8624 208.628 63.1971 209.963 64.8436 209.963C66.4901 209.963 67.8249 208.628 67.8249 206.981C67.8249 205.335 66.4901 204 64.8436 204ZM127.45 311.325C127.45 309.678 128.785 308.344 130.431 308.344C132.078 308.344 133.412 309.678 133.412 311.325C133.412 312.971 132.078 314.306 130.431 314.306C128.785 314.306 127.45 312.971 127.45 311.325ZM130.431 245.737C128.785 245.737 127.45 247.072 127.45 248.719C127.45 250.365 128.785 251.7 130.431 251.7C132.078 251.7 133.412 250.365 133.412 248.719C133.412 247.072 132.078 245.737 130.431 245.737ZM127.45 290.456C127.45 288.81 128.785 287.475 130.431 287.475C132.078 287.475 133.412 288.81 133.412 290.456C133.412 292.103 132.078 293.437 130.431 293.437C128.785 293.437 127.45 292.103 127.45 290.456ZM130.431 224.869C128.785 224.869 127.45 226.204 127.45 227.85C127.45 229.497 128.785 230.831 130.431 230.831C132.078 230.831 133.412 229.497 133.412 227.85C133.412 226.204 132.078 224.869 130.431 224.869ZM127.45 269.588C127.45 267.941 128.785 266.606 130.431 266.606C132.078 266.606 133.412 267.941 133.412 269.588C133.412 271.234 132.078 272.569 130.431 272.569C128.785 272.569 127.45 271.234 127.45 269.588ZM130.431 204C128.785 204 127.45 205.335 127.45 206.981C127.45 208.628 128.785 209.963 130.431 209.963C132.078 209.963 133.412 208.628 133.412 206.981C133.412 205.335 132.078 204 130.431 204ZM40 311.325C40 309.678 41.3347 308.344 42.9812 308.344C44.6277 308.344 45.9625 309.678 45.9625 311.325C45.9625 312.971 44.6277 314.306 42.9812 314.306C41.3347 314.306 40 312.971 40 311.325ZM42.9812 245.737C41.3347 245.737 40 247.072 40 248.719C40 250.365 41.3347 251.7 42.9812 251.7C44.6277 251.7 45.9625 250.365 45.9625 248.719C45.9625 247.072 44.6277 245.737 42.9812 245.737ZM40 290.456C40 288.81 41.3347 287.475 42.9812 287.475C44.6277 287.475 45.9625 288.81 45.9625 290.456C45.9625 292.103 44.6277 293.437 42.9812 293.437C41.3347 293.437 40 292.103 40 290.456ZM42.9812 224.869C41.3347 224.869 40 226.204 40 227.85C40 229.497 41.3347 230.831 42.9812 230.831C44.6277 230.831 45.9625 229.497 45.9625 227.85C45.9625 226.204 44.6277 224.869 42.9812 224.869ZM40 269.588C40 267.941 41.3347 266.606 42.9812 266.606C44.6277 266.606 45.9625 267.941 45.9625 269.588C45.9625 271.234 44.6277 272.569 42.9812 272.569C41.3347 272.569 40 271.234 40 269.588ZM42.9812 204C41.3347 204 40 205.335 40 206.981C40 208.628 41.3347 209.963 42.9812 209.963C44.6277 209.963 45.9625 208.628 45.9625 206.981C45.9625 205.335 44.6277 204 42.9812 204Z" fill="url(#paint1_linear)"/>
<g filter="url(#filter0_d)">
<g clip-path="url(#clip0)">
<path d="M20 75.2246H253.19V227.457C253.19 228.397 252.816 229.298 252.152 229.962C251.487 230.627 250.586 231 249.646 231H23.5433C22.6036 231 21.7023 230.627 21.0378 229.962C20.3733 229.298 20 228.397 20 227.457V75.2246Z" fill="white"/>
<path d="M23.5433 63H249.646C250.586 63 251.487 63.3733 252.152 64.0378C252.816 64.7023 253.19 65.6036 253.19 66.5433V75.352H20V66.5433C20 65.6036 20.3733 64.7023 21.0378 64.0378C21.7023 63.3733 22.6036 63 23.5433 63V63Z" fill="#D1D3DB"/>
<path d="M27.4389 71.1165C28.51 71.1165 29.3783 70.2482 29.3783 69.1772C29.3783 68.1061 28.51 67.2378 27.4389 67.2378C26.3678 67.2378 25.4995 68.1061 25.4995 69.1772C25.4995 70.2482 26.3678 71.1165 27.4389 71.1165Z" fill="#F0F1F7"/>
<path d="M33.4384 71.1165C34.5095 71.1165 35.3778 70.2482 35.3778 69.1772C35.3778 68.1061 34.5095 67.2378 33.4384 67.2378C32.3673 67.2378 31.499 68.1061 31.499 69.1772C31.499 70.2482 32.3673 71.1165 33.4384 71.1165Z" fill="#F0F1F7"/>
<path d="M39.4364 71.1165C40.5075 71.1165 41.3758 70.2482 41.3758 69.1772C41.3758 68.1061 40.5075 67.2378 39.4364 67.2378C38.3654 67.2378 37.4971 68.1061 37.4971 69.1772C37.4971 70.2482 38.3654 71.1165 39.4364 71.1165Z" fill="#F0F1F7"/>
</g>
<rect x="29.4487" y="210.166" width="11.811" height="11.811" rx="2" fill="#F0F1F7"/>
<rect x="47.8745" y="210.165" width="11.811" height="11.811" rx="2" fill="#F0F1F7"/>
<rect x="66.2993" y="210.165" width="11.811" height="11.811" rx="2" fill="#F0F1F7"/>
<rect x="84.7246" y="210.165" width="11.811" height="11.811" rx="2" fill="#F0F1F7"/>
<rect x="103.15" y="210.165" width="11.811" height="11.811" rx="2" fill="#F0F1F7"/>
<rect x="121.575" y="210.165" width="11.811" height="11.811" rx="2" fill="#F0F1F7"/>
<rect x="140" y="210.165" width="11.811" height="11.811" rx="2" fill="#F0F1F7"/>
<rect x="158.425" y="210.165" width="11.811" height="11.811" rx="2" fill="#F0F1F7"/>
<rect x="176.851" y="210.165" width="11.811" height="11.811" rx="2" fill="#F0F1F7"/>
<rect x="195.276" y="210.165" width="11.811" height="11.811" rx="2" fill="#F0F1F7"/>
<rect x="213.701" y="210.165" width="11.811" height="11.811" rx="2" fill="#F0F1F7"/>
<rect x="232.126" y="210.165" width="11.811" height="11.811" rx="2" fill="#F0F1F7"/>
<rect x="225.512" y="88.7485" width="14.1732" height="14.1732" rx="2" fill="url(#paint2_linear)"/>
<rect x="225.511" y="112.134" width="14.1732" height="14.1732" rx="2" fill="url(#paint3_linear)"/>
<rect x="225.511" y="135.52" width="14.1732" height="14.1732" rx="2" fill="url(#paint4_linear)"/>
<rect x="225.511" y="158.905" width="14.1732" height="14.1732" rx="2" fill="url(#paint5_linear)"/>
<rect x="47.4019" y="94.8896" width="98.0315" height="71.1024" rx="3" fill="url(#paint6_linear)"/>
<rect x="89.6851" y="131.503" width="75.8268" height="55.0394" rx="3" fill="url(#paint7_linear)"/>
<line x1="57.3232" y1="106.646" x2="121.575" y2="106.646" stroke="#FE9000" stroke-width="2"/>
<line x1="57.3232" y1="120.11" x2="112.835" y2="120.11" stroke="#FE9000" stroke-width="2"/>
<line x1="57.3232" y1="113.26" x2="103.15" y2="113.26" stroke="#FE9000" stroke-width="2"/>
</g>
<g filter="url(#filter1_d)">
<g clip-path="url(#clip1)">
<path d="M292 18.1055H542V181.312C542 182.319 541.6 183.286 540.887 183.998C540.175 184.71 539.209 185.111 538.201 185.111H295.799C294.791 185.111 293.825 184.71 293.113 183.998C292.4 183.286 292 182.319 292 181.312V18.1055Z" fill="white"/>
<path d="M295.799 5H538.201C539.209 5 540.175 5.40022 540.887 6.11262C541.6 6.82503 542 7.79125 542 8.79874V18.2424H292V8.79874C292 7.79125 292.4 6.82503 293.113 6.11262C293.825 5.40022 294.791 5 295.799 5V5Z" fill="#D1D3DB"/>
<path d="M299.975 13.7018C301.123 13.7018 302.054 12.7709 302.054 11.6226C302.054 10.4743 301.123 9.54346 299.975 9.54346C298.826 9.54346 297.896 10.4743 297.896 11.6226C297.896 12.7709 298.826 13.7018 299.975 13.7018Z" fill="#F0F1F7"/>
<path d="M306.407 13.7018C307.556 13.7018 308.486 12.7709 308.486 11.6226C308.486 10.4743 307.556 9.54346 306.407 9.54346C305.259 9.54346 304.328 10.4743 304.328 11.6226C304.328 12.7709 305.259 13.7018 306.407 13.7018Z" fill="#F0F1F7"/>
<path d="M312.837 13.7018C313.986 13.7018 314.917 12.7709 314.917 11.6226C314.917 10.4743 313.986 9.54346 312.837 9.54346C311.689 9.54346 310.758 10.4743 310.758 11.6226C310.758 12.7709 311.689 13.7018 312.837 13.7018Z" fill="#F0F1F7"/>
</g>
<rect x="302.13" y="162.774" width="12.6625" height="12.6625" rx="2" fill="#F0F1F7"/>
<rect x="321.884" y="162.774" width="12.6625" height="12.6625" rx="2" fill="#F0F1F7"/>
<rect x="341.637" y="162.774" width="12.6625" height="12.6625" rx="2" fill="#F0F1F7"/>
<rect x="361.391" y="162.774" width="12.6625" height="12.6625" rx="2" fill="#F0F1F7"/>
<rect x="381.145" y="162.774" width="12.6625" height="12.6625" rx="2" fill="#F0F1F7"/>
<rect x="400.897" y="162.774" width="12.6625" height="12.6625" rx="2" fill="#F0F1F7"/>
<rect x="420.65" y="162.774" width="12.6625" height="12.6625" rx="2" fill="#F0F1F7"/>
<rect x="440.404" y="162.774" width="12.6625" height="12.6625" rx="2" fill="#F0F1F7"/>
<rect x="460.158" y="162.774" width="12.6625" height="12.6625" rx="2" fill="#F0F1F7"/>
<rect x="479.911" y="162.774" width="12.6625" height="12.6625" rx="2" fill="#F0F1F7"/>
<rect x="499.665" y="162.774" width="12.6625" height="12.6625" rx="2" fill="#F0F1F7"/>
<rect x="519.418" y="162.774" width="12.6625" height="12.6625" rx="2" fill="#F0F1F7"/>
<rect x="512.328" y="32.6045" width="15.195" height="15.195" rx="2" fill="url(#paint8_linear)"/>
<rect x="512.326" y="57.6758" width="15.195" height="15.195" rx="2" fill="url(#paint9_linear)"/>
<rect x="512.326" y="82.748" width="15.195" height="15.195" rx="2" fill="url(#paint10_linear)"/>
<rect x="512.326" y="107.819" width="15.195" height="15.195" rx="2" fill="url(#paint11_linear)"/>
<rect x="321.377" y="39.1885" width="105.098" height="76.228" rx="3" fill="url(#paint12_linear)"/>
<rect x="366.708" y="78.4419" width="81.293" height="59.0071" rx="3" fill="url(#paint13_linear)"/>
<line x1="332.015" y1="51.8638" x2="400.898" y2="51.8638" stroke="#FE9000" stroke-width="2"/>
<line x1="332.014" y1="66.2993" x2="391.528" y2="66.2993" stroke="#FE9000" stroke-width="2"/>
<line x1="332.014" y1="58.9551" x2="381.145" y2="58.9551" stroke="#FE9000" stroke-width="2"/>
</g>
<g filter="url(#filter2_d)">
<g clip-path="url(#clip2)">
<path d="M127 146.103H434.17V346.631C434.17 347.869 433.678 349.056 432.803 349.931C431.928 350.807 430.74 351.298 429.503 351.298H131.667C130.43 351.298 129.242 350.807 128.367 349.931C127.492 349.056 127 347.869 127 346.631V146.103Z" fill="white"/>
<path d="M131.667 130H429.503C430.74 130 431.928 130.492 432.803 131.367C433.678 132.242 434.17 133.43 434.17 134.667V146.271H127V134.667C127 133.43 127.492 132.242 128.367 131.367C129.242 130.492 130.43 130 131.667 130V130Z" fill="#D1D3DB"/>
<path d="M136.799 140.692C138.21 140.692 139.353 139.548 139.353 138.137C139.353 136.726 138.21 135.583 136.799 135.583C135.388 135.583 134.244 136.726 134.244 138.137C134.244 139.548 135.388 140.692 136.799 140.692Z" fill="#F0F1F7"/>
<path d="M144.702 140.692C146.113 140.692 147.257 139.548 147.257 138.137C147.257 136.726 146.113 135.583 144.702 135.583C143.291 135.583 142.147 136.726 142.147 138.137C142.147 139.548 143.291 140.692 144.702 140.692Z" fill="#F0F1F7"/>
<path d="M152.602 140.692C154.013 140.692 155.157 139.548 155.157 138.137C155.157 136.726 154.013 135.583 152.602 135.583C151.192 135.583 150.048 136.726 150.048 138.137C150.048 139.548 151.192 140.692 152.602 140.692Z" fill="#F0F1F7"/>
</g>
<rect x="139.446" y="323.854" width="15.5581" height="15.5581" rx="3" fill="#F0F1F7"/>
<rect x="163.717" y="323.854" width="15.5581" height="15.5581" rx="3" fill="#F0F1F7"/>
<rect x="187.988" y="323.854" width="15.5581" height="15.5581" rx="3" fill="#F0F1F7"/>
<rect x="212.258" y="323.854" width="15.5581" height="15.5581" rx="3" fill="#F0F1F7"/>
<rect x="236.529" y="323.854" width="15.5581" height="15.5581" rx="3" fill="#F0F1F7"/>
<rect x="260.8" y="323.854" width="15.5581" height="15.5581" rx="3" fill="#F0F1F7"/>
<rect x="285.07" y="323.854" width="15.5581" height="15.5581" rx="3" fill="#F0F1F7"/>
<rect x="309.341" y="323.854" width="15.5581" height="15.5581" rx="3" fill="#F0F1F7"/>
<rect x="333.612" y="323.854" width="15.5581" height="15.5581" rx="3" fill="#F0F1F7"/>
<rect x="357.882" y="323.854" width="15.5581" height="15.5581" rx="3" fill="#F0F1F7"/>
<rect x="382.153" y="323.854" width="15.5581" height="15.5581" rx="3" fill="#F0F1F7"/>
<rect x="406.424" y="323.854" width="15.5581" height="15.5581" rx="3" fill="#F0F1F7"/>
<rect x="397.711" y="163.917" width="18.6697" height="18.6697" rx="3" fill="url(#paint14_linear)"/>
<rect x="397.711" y="194.722" width="18.6697" height="18.6697" rx="3" fill="url(#paint15_linear)"/>
<rect x="397.711" y="225.527" width="18.6697" height="18.6697" rx="3" fill="url(#paint16_linear)"/>
<rect x="397.711" y="256.332" width="18.6697" height="18.6697" rx="3" fill="url(#paint17_linear)"/>
<rect x="163.095" y="172.007" width="129.132" height="93.6598" rx="5" fill="url(#paint18_linear)"/>
<rect x="218.793" y="220.237" width="99.8831" height="72.5008" rx="5" fill="url(#paint19_linear)"/>
<line x1="176.164" y1="187.81" x2="260.8" y2="187.81" stroke="#FE9000" stroke-width="2"/>
<line x1="176.164" y1="205.546" x2="249.287" y2="205.546" stroke="#FE9000" stroke-width="2"/>
<line x1="176.164" y1="196.522" x2="236.529" y2="196.522" stroke="#FE9000" stroke-width="2"/>
</g>
<defs>
<filter id="filter0_d" x="0" y="58" width="273.19" height="208" filterUnits="userSpaceOnUse" color-interpolation-filters="sRGB">
<feFlood flood-opacity="0" result="BackgroundImageFix"/>
<feColorMatrix in="SourceAlpha" type="matrix" values="0 0 0 0 0 0 0 0 0 0 0 0 0 0 0 0 0 0 127 0" result="hardAlpha"/>
<feOffset dy="15"/>
<feGaussianBlur stdDeviation="10"/>
<feComposite in2="hardAlpha" operator="out"/>
<feColorMatrix type="matrix" values="0 0 0 0 0 0 0 0 0 0 0 0 0 0 0 0 0 0 0.15 0"/>
<feBlend mode="normal" in2="BackgroundImageFix" result="effect1_dropShadow"/>
<feBlend mode="normal" in="SourceGraphic" in2="effect1_dropShadow" result="shape"/>
</filter>
<filter id="filter1_d" x="272" y="0" width="290" height="220.111" filterUnits="userSpaceOnUse" color-interpolation-filters="sRGB">
<feFlood flood-opacity="0" result="BackgroundImageFix"/>
<feColorMatrix in="SourceAlpha" type="matrix" values="0 0 0 0 0 0 0 0 0 0 0 0 0 0 0 0 0 0 127 0" result="hardAlpha"/>
<feOffset dy="15"/>
<feGaussianBlur stdDeviation="10"/>
<feComposite in2="hardAlpha" operator="out"/>
<feColorMatrix type="matrix" values="0 0 0 0 0 0 0 0 0 0 0 0 0 0 0 0 0 0 0.15 0"/>
<feBlend mode="normal" in2="BackgroundImageFix" result="effect1_dropShadow"/>
<feBlend mode="normal" in="SourceGraphic" in2="effect1_dropShadow" result="shape"/>
</filter>
<filter id="filter2_d" x="102" y="120" width="357.17" height="271.299" filterUnits="userSpaceOnUse" color-interpolation-filters="sRGB">
<feFlood flood-opacity="0" result="BackgroundImageFix"/>
<feColorMatrix in="SourceAlpha" type="matrix" values="0 0 0 0 0 0 0 0 0 0 0 0 0 0 0 0 0 0 127 0" result="hardAlpha"/>
<feOffset dy="15"/>
<feGaussianBlur stdDeviation="12.5"/>
<feComposite in2="hardAlpha" operator="out"/>
<feColorMatrix type="matrix" values="0 0 0 0 0 0 0 0 0 0 0 0 0 0 0 0 0 0 0.25 0"/>
<feBlend mode="normal" in2="BackgroundImageFix" result="effect1_dropShadow"/>
<feBlend mode="normal" in="SourceGraphic" in2="effect1_dropShadow" result="shape"/>
</filter>
<linearGradient id="paint0_linear" x1="512.306" y1="458" x2="381.49" y2="438.81" gradientUnits="userSpaceOnUse">
<stop stop-color="#7098FF"/>
<stop offset="0.49261" stop-color="#935EEB"/>
<stop offset="1" stop-color="#E076E2"/>
</linearGradient>
<linearGradient id="paint1_linear" x1="40" y1="314.306" x2="59.1902" y2="183.49" gradientUnits="userSpaceOnUse">
<stop stop-color="#7098FF"/>
<stop offset="0.49261" stop-color="#935EEB"/>
<stop offset="1" stop-color="#E076E2"/>
</linearGradient>
<linearGradient id="paint2_linear" x1="237.543" y1="100.173" x2="225.233" y2="97.0782" gradientUnits="userSpaceOnUse">
<stop stop-color="#7080E0"/>
<stop offset="1" stop-color="#413D72"/>
</linearGradient>
<linearGradient id="paint3_linear" x1="237.542" y1="123.558" x2="225.232" y2="120.463" gradientUnits="userSpaceOnUse">
<stop stop-color="#7080E0"/>
<stop offset="1" stop-color="#413D72"/>
</linearGradient>
<linearGradient id="paint4_linear" x1="237.542" y1="146.944" x2="225.232" y2="143.85" gradientUnits="userSpaceOnUse">
<stop stop-color="#7080E0"/>
<stop offset="1" stop-color="#413D72"/>
</linearGradient>
<linearGradient id="paint5_linear" x1="237.542" y1="170.329" x2="225.232" y2="167.235" gradientUnits="userSpaceOnUse">
<stop stop-color="#7080E0"/>
<stop offset="1" stop-color="#413D72"/>
</linearGradient>
<linearGradient id="paint6_linear" x1="130.614" y1="152.201" x2="49.7948" y2="124.191" gradientUnits="userSpaceOnUse">
<stop stop-color="#E17B50"/>
<stop offset="1" stop-color="#A74D73"/>
</linearGradient>
<linearGradient id="paint7_linear" x1="154.049" y1="175.867" x2="91.5257" y2="154.215" gradientUnits="userSpaceOnUse">
<stop stop-color="#E17B50"/>
<stop offset="1" stop-color="#A74D73"/>
</linearGradient>
<linearGradient id="paint8_linear" x1="525.226" y1="44.8521" x2="512.028" y2="41.5347" gradientUnits="userSpaceOnUse">
<stop stop-color="#7080E0"/>
<stop offset="1" stop-color="#413D72"/>
</linearGradient>
<linearGradient id="paint9_linear" x1="525.224" y1="69.9234" x2="512.026" y2="66.6059" gradientUnits="userSpaceOnUse">
<stop stop-color="#7080E0"/>
<stop offset="1" stop-color="#413D72"/>
</linearGradient>
<linearGradient id="paint10_linear" x1="525.224" y1="94.9957" x2="512.026" y2="91.6782" gradientUnits="userSpaceOnUse">
<stop stop-color="#7080E0"/>
<stop offset="1" stop-color="#413D72"/>
</linearGradient>
<linearGradient id="paint11_linear" x1="525.224" y1="120.067" x2="512.026" y2="116.749" gradientUnits="userSpaceOnUse">
<stop stop-color="#7080E0"/>
<stop offset="1" stop-color="#413D72"/>
</linearGradient>
<linearGradient id="paint12_linear" x1="410.588" y1="100.631" x2="323.943" y2="70.6022" gradientUnits="userSpaceOnUse">
<stop stop-color="#E17B50"/>
<stop offset="1" stop-color="#A74D73"/>
</linearGradient>
<linearGradient id="paint13_linear" x1="435.712" y1="126.004" x2="368.682" y2="102.791" gradientUnits="userSpaceOnUse">
<stop stop-color="#E17B50"/>
<stop offset="1" stop-color="#A74D73"/>
</linearGradient>
<linearGradient id="paint14_linear" x1="413.559" y1="178.965" x2="397.343" y2="174.889" gradientUnits="userSpaceOnUse">
<stop stop-color="#7080E0"/>
<stop offset="1" stop-color="#413D72"/>
</linearGradient>
<linearGradient id="paint15_linear" x1="413.558" y1="209.77" x2="397.343" y2="205.694" gradientUnits="userSpaceOnUse">
<stop stop-color="#7080E0"/>
<stop offset="1" stop-color="#413D72"/>
</linearGradient>
<linearGradient id="paint16_linear" x1="413.558" y1="240.575" x2="397.343" y2="236.499" gradientUnits="userSpaceOnUse">
<stop stop-color="#7080E0"/>
<stop offset="1" stop-color="#413D72"/>
</linearGradient>
<linearGradient id="paint17_linear" x1="413.558" y1="271.38" x2="397.343" y2="267.304" gradientUnits="userSpaceOnUse">
<stop stop-color="#7080E0"/>
<stop offset="1" stop-color="#413D72"/>
</linearGradient>
<linearGradient id="paint18_linear" x1="272.706" y1="247.5" x2="166.247" y2="210.604" gradientUnits="userSpaceOnUse">
<stop stop-color="#E17B50"/>
<stop offset="1" stop-color="#A74D73"/>
</linearGradient>
<linearGradient id="paint19_linear" x1="303.577" y1="278.675" x2="221.218" y2="250.154" gradientUnits="userSpaceOnUse">
<stop stop-color="#E17B50"/>
<stop offset="1" stop-color="#A74D73"/>
</linearGradient>
<clipPath id="clip0">
<rect width="233.19" height="168" fill="white" transform="translate(20 63)"/>
</clipPath>
<clipPath id="clip1">
<rect width="250" height="180.111" fill="white" transform="translate(292 5)"/>
</clipPath>
<clipPath id="clip2">
<rect width="307.17" height="221.299" fill="white" transform="translate(127 130)"/>
</clipPath>
</defs>
</svg>
